<svg id="logo" viewBox="0 0 32 32" xmlns="http://www.w3.org/2000/svg">
  <path fill="#d80082" d="M 17.16 25.665 C 16.586 25.127 15.379 23.368 14.596 21.923 C 13.985 20.791 13.947 20.661 14.192 20.508 C 14.321 20.426 14.415 20.55 14.951 21.516 C 15.898 23.223 16.661 24.374 17.28 25.032 C 17.525 25.293 17.498 25.308 18.004 24.637 C 19.537 22.608 20.78 20.388 21.607 18.211 C 21.923 17.375 22.056 17.181 22.238 17.28 C 22.398 17.364 22.374 17.609 22.135 18.258 C 21.556 19.83 20.7 21.524 19.626 23.222 C 18.882 24.394 17.68 25.906 17.493 25.906 C 17.452 25.906 17.304 25.797 17.16 25.665 Z M 14.508 20.219 C 12.305 19.803 11.052 19.415 9.536 18.677 C 8.102 17.993 6.796 17.068 5.677 15.94 C 4.582 14.845 4.263 14.375 4.526 14.259 C 4.573 14.239 5.275 14.207 6.085 14.191 L 7.553 14.161 L 6.717 13.745 C 5.887 13.337 5.086 12.871 4.319 12.349 C 3.317 11.626 2.154 10.597 2.154 10.428 C 2.154 10.385 2.186 10.305 2.227 10.252 C 2.296 10.155 2.431 10.154 8.673 10.14 L 15.048 10.124 L 15.665 9.561 C 17.738 7.671 19.616 6.566 21.391 6.187 C 22.017 6.053 23.057 6.064 23.576 6.213 C 24.67 6.522 25.523 7.211 26.335 8.439 L 26.713 9.014 L 28.272 9.786 C 29.669 10.48 29.829 10.573 29.843 10.692 C 29.869 10.923 29.769 10.946 29.24 10.833 C 27.729 10.509 27.774 10.517 26.86 10.514 C 25.813 10.508 25.401 10.583 24.782 10.893 C 23.919 11.326 23.396 12.036 23.178 13.07 C 23.142 13.252 23.084 13.719 23.053 14.111 C 23.023 14.5 22.965 14.98 22.927 15.175 C 22.833 15.63 22.474 16.351 22.129 16.77 C 21.032 18.113 18.577 19.394 15.775 20.092 C 15.14 20.249 14.829 20.281 14.505 20.219 Z M 15.482 19.637 C 16.459 19.433 18.025 18.878 19.123 18.346 C 20.333 17.756 21.182 17.138 21.737 16.439 C 22.266 15.771 22.496 15.154 22.496 14.39 C 22.496 13.358 22.041 12.555 21.11 11.935 C 20.125 11.282 19.001 10.97 17.051 10.814 C 16.717 10.793 16.383 10.758 16.049 10.708 C 15.963 10.654 15.999 10.387 16.102 10.334 C 16.403 10.172 18.497 10.4 19.581 10.713 C 20.919 11.099 21.997 11.785 22.504 12.574 C 22.644 12.794 22.674 12.818 22.708 12.736 C 22.726 12.682 22.806 12.479 22.882 12.284 C 23.198 11.466 23.793 10.801 24.533 10.437 C 25.148 10.134 25.576 10.044 26.574 9.999 L 27.431 9.962 L 26.887 9.684 C 26.442 9.455 26.321 9.369 26.212 9.196 C 25.498 8.07 25.129 7.632 24.561 7.233 C 22.548 5.819 19.498 6.775 16.055 9.897 C 15.689 10.229 15.339 10.535 15.278 10.58 C 15.177 10.651 14.504 10.662 9.111 10.677 L 3.058 10.695 L 3.226 10.842 C 5.143 12.504 7.187 13.587 9.292 14.059 C 9.995 14.216 10.118 14.268 10.118 14.415 C 10.118 14.665 10.105 14.665 7.714 14.68 C 6.483 14.688 5.425 14.706 5.36 14.719 L 5.245 14.744 L 5.385 14.93 C 5.627 15.248 7.006 16.498 7.547 16.893 C 9.378 18.225 11.678 19.188 14.049 19.614 C 14.691 19.729 14.995 19.735 15.482 19.634 Z M 17.374 16.99 C 16.541 16.764 15.893 16.111 15.674 15.275 C 15.394 14.198 15.94 13.081 16.991 12.582 C 17.301 12.434 17.448 12.396 17.789 12.374 C 18.807 12.311 19.649 12.821 20.109 13.781 C 20.281 14.144 20.289 14.186 20.289 14.694 C 20.287 15.331 20.183 15.642 19.815 16.129 C 19.247 16.876 18.287 17.216 17.372 16.99 Z M 18.589 16.446 C 19.09 16.274 19.565 15.76 19.715 15.228 C 19.808 14.827 19.79 14.409 19.66 14.021 C 19.481 13.602 19.162 13.258 18.76 13.046 C 18.492 12.912 18.412 12.897 17.957 12.897 C 17.475 12.897 17.431 12.904 17.127 13.068 C 16.736 13.276 16.427 13.613 16.255 14.026 C 16.103 14.428 16.125 15.166 16.298 15.518 C 16.527 15.982 17.04 16.386 17.563 16.521 C 17.808 16.581 18.299 16.546 18.589 16.446 Z M 23.32 8.734 C 23.137 8.654 22.953 8.391 22.953 8.209 C 22.953 8.016 23.107 7.745 23.26 7.665 C 23.447 7.57 23.763 7.573 23.907 7.671 C 24.064 7.795 24.161 7.983 24.17 8.185 C 24.149 8.423 24.005 8.63 23.789 8.736 C 23.577 8.825 23.529 8.825 23.322 8.736 Z"/>
</svg>
