<svg width="41" height="37" viewBox="0 0 41 37" fill="none" xmlns="http://www.w3.org/2000/svg">
  <path d="M6.6587 9.62622H34.3431C35.3695 9.62622 36.3538 10.034 37.0796 10.7597C37.8053 11.4855 38.2131 12.4698 38.2131 13.4962V30.6712C38.2131 31.6976 37.8053 32.682 37.0796 33.4077C36.3538 34.1335 35.3695 34.5412 34.3431 34.5412H6.6587C6.15048 34.5412 5.64724 34.4411 5.17771 34.2466C4.70818 34.0522 4.28156 33.7671 3.92219 33.4077C3.19643 32.682 2.7887 31.6976 2.7887 30.6712V13.4962C2.7887 12.4698 3.19643 11.4855 3.92219 10.7597C4.64796 10.034 5.63231 9.62622 6.6587 9.62622V9.62622Z" stroke="#4E4E4E" stroke-width="4"/>
  <path d="M14.8918 2.12622H26.1118C26.6131 2.12622 27.0938 2.32535 27.4483 2.67979C27.8027 3.03423 28.0018 3.51496 28.0018 4.01622V9.62622H13.0018V4.01622C13.0018 3.51496 13.201 3.03423 13.5554 2.67979C13.9098 2.32535 14.3906 2.12622 14.8918 2.12622V2.12622Z" stroke="#4E4E4E" stroke-width="4"/>
  <path d="M9.25892 18.0508C8.72679 16.462 9.28168 15.8347 10.9236 16.1689L12.3627 16.4607C14.0046 16.7949 14.2703 17.5898 13.1597 18.8453L12.1882 19.9436C11.0776 21.1991 10.2563 21.0325 9.72414 19.4436L9.25892 18.0508Z" fill="#4E4E4E"/>
  <path d="M23.9787 20.0577C24.5957 19.1941 25.4103 18.9221 26.4224 19.2418L29.461 20.2021C30.4747 20.5226 30.9855 21.2139 30.9935 22.2761L31.0193 25.4619C31.0273 26.524 30.528 27.2231 29.5214 27.5591L26.498 28.5685C25.4914 28.9046 24.6723 28.6457 24.0406 27.7918L22.1473 25.2295C21.5156 24.3756 21.5087 23.516 22.1265 22.6509L23.9787 20.0577Z" fill="#4E4E4E"/>
</svg>
