<svg id="bail" viewBox="95.679 28.259 24 24" xmlns="http://www.w3.org/2000/svg">
  <path d="M 104.615 29.322 L 103.487 34.248 L 102.322 33.166 C 97.599 38.101 99.888 46.436 106.53 48.143 C 109.415 48.884 112.48 48.142 114.706 46.164 L 114.703 46.16 C 115.277 45.626 116.213 45.913 116.389 46.677 C 116.472 47.042 116.35 47.422 116.07 47.669 L 116.079 47.679 C 109.759 53.314 99.708 49.995 97.987 41.704 C 97.246 38.132 98.324 34.427 100.862 31.81 L 99.784 30.808 Z" style=""/>
  <path d="M 118.682 40.052 C 118.682 41.218 117.744 42.412 116.528 43.091 C 115.349 43.749 113.65 44.174 111.891 44.174 C 110.132 44.174 108.433 43.749 107.254 43.091 C 106.038 42.412 105.1 41.218 105.1 40.052 C 105.1 39.155 105.68 38.209 106.43 37.568 L 106.903 37.164 L 107.378 37.568 C 108.343 38.388 109.934 38.868 111.891 38.868 C 113.848 38.868 115.439 38.388 116.404 37.568 L 116.879 37.164 L 117.352 37.568 C 118.102 38.209 118.682 39.155 118.682 40.052 Z M 116.822 39.097 C 115.587 39.855 114.076 40.368 111.891 40.368 C 109.706 40.368 108.177 40.054 106.966 39.1 C 106.7 39.396 106.6 39.537 106.6 40.052 C 106.6 40.748 107.015 41.24 107.985 41.781 C 108.993 42.344 110.314 42.674 111.891 42.674 C 113.468 42.674 114.789 42.344 115.797 41.781 C 116.767 41.24 117.182 40.748 117.182 40.052 C 117.182 39.537 117.402 39.54 116.822 39.097 Z" style=""/>
  <path d="M 118.682 36.203 C 118.682 37.369 117.745 38.563 116.528 39.242 C 115.349 39.9 113.65 40.325 111.891 40.325 C 110.132 40.325 108.433 39.9 107.254 39.242 C 106.037 38.563 105.1 37.369 105.1 36.203 C 105.1 35.037 106.037 33.843 107.254 33.164 C 108.433 32.506 110.132 32.081 111.891 32.081 C 113.65 32.081 115.349 32.506 116.528 33.164 C 117.745 33.843 118.682 35.037 118.682 36.203 Z M 115.797 34.474 C 114.789 33.911 113.468 33.581 111.891 33.581 C 110.314 33.581 108.993 33.911 107.985 34.474 C 107.015 35.015 106.6 35.506 106.6 36.203 C 106.6 36.9 107.015 37.391 107.985 37.932 C 108.993 38.495 110.314 38.825 111.891 38.825 C 113.468 38.825 114.789 38.495 115.797 37.932 C 116.767 37.391 117.182 36.9 117.182 36.203 C 117.182 35.506 116.767 35.015 115.797 34.474 Z" style=""/>
</svg>