<svg id="buy" viewBox="0 0 24 24" xmlns="http://www.w3.org/2000/svg">
  <path d="M 3.852 20.754 C 3.749 20.754 3.646 20.749 3.546 20.739 C 3.445 20.728 3.346 20.713 3.248 20.693 C 3.151 20.673 3.055 20.648 2.961 20.619 C 2.867 20.59 2.775 20.556 2.685 20.518 C 2.595 20.48 2.508 20.438 2.423 20.392 C 2.338 20.345 2.255 20.295 2.175 20.241 C 2.095 20.187 2.018 20.13 1.944 20.069 C 1.87 20.008 1.799 19.943 1.731 19.875 C 1.663 19.807 1.598 19.736 1.537 19.662 C 1.476 19.588 1.418 19.511 1.365 19.431 C 1.311 19.351 1.261 19.269 1.214 19.184 C 1.168 19.099 1.126 19.011 1.088 18.922 C 1.05 18.832 1.016 18.74 0.987 18.646 C 0.958 18.552 0.933 18.456 0.913 18.359 C 0.893 18.261 0.878 18.162 0.867 18.061 C 0.857 17.96 0.852 17.858 0.852 17.754 L 0.852 9.014 C 0.852 8.96 0.853 8.906 0.856 8.853 C 0.858 8.799 0.862 8.746 0.867 8.693 C 0.872 8.64 0.879 8.587 0.887 8.535 C 0.895 8.482 0.905 8.43 0.916 8.378 C 0.926 8.326 0.938 8.275 0.952 8.224 C 0.965 8.173 0.98 8.122 0.997 8.072 C 1.013 8.021 1.03 7.972 1.049 7.922 C 1.067 7.873 1.087 7.824 1.109 7.776 C 1.13 7.728 1.152 7.68 1.176 7.633 C 1.2 7.586 1.225 7.54 1.252 7.494 C 1.278 7.448 1.305 7.403 1.334 7.359 C 1.363 7.315 1.393 7.271 1.424 7.228 C 1.455 7.185 1.487 7.143 1.521 7.102 C 1.554 7.061 1.588 7.02 1.624 6.981 C 1.659 6.941 1.696 6.902 1.735 6.864 C 1.773 6.827 1.812 6.79 1.852 6.754 L 2.227 6.425 L 2.602 6.097 L 3.727 5.11 L 4.102 4.782 L 5.227 3.795 L 5.602 3.467 L 6.727 2.48 L 7.102 2.152 L 7.852 1.494 C 7.923 1.43 7.997 1.371 8.072 1.315 C 8.148 1.259 8.225 1.207 8.304 1.16 C 8.383 1.112 8.464 1.068 8.547 1.028 C 8.629 0.989 8.713 0.953 8.798 0.921 C 8.883 0.889 8.969 0.862 9.056 0.838 C 9.142 0.814 9.23 0.794 9.318 0.778 C 9.406 0.762 9.495 0.75 9.584 0.742 C 9.673 0.734 9.762 0.73 9.852 0.73 C 9.941 0.73 10.031 0.734 10.12 0.742 C 10.209 0.75 10.298 0.762 10.387 0.778 C 10.475 0.794 10.563 0.814 10.65 0.838 C 10.736 0.862 10.822 0.889 10.907 0.921 C 10.992 0.953 11.076 0.989 11.158 1.029 C 11.24 1.069 11.321 1.112 11.4 1.16 C 11.479 1.208 11.556 1.26 11.632 1.315 C 11.707 1.371 11.78 1.43 11.852 1.494 L 12.542 2.1 L 12.887 2.402 L 13.233 2.705 L 13.578 3.008 L 13.924 3.311 L 14.269 3.613 L 14.615 3.916 L 14.96 4.219 L 15.306 4.522 L 15.651 4.824 L 16.048 5.173 L 16.048 6.787 C 15.692 6.83 15.355 6.889 15.038 6.964 L 14.913 6.855 L 14.575 6.559 L 14.236 6.263 L 13.898 5.967 L 13.559 5.67 L 13.221 5.374 L 12.882 5.078 L 12.544 4.782 L 12.205 4.485 L 11.527 3.893 L 11.189 3.597 L 10.85 3.3 L 10.512 3.004 C 10.488 2.983 10.464 2.964 10.439 2.946 C 10.414 2.927 10.389 2.91 10.363 2.895 C 10.337 2.879 10.31 2.865 10.283 2.853 C 10.256 2.84 10.228 2.828 10.2 2.818 C 10.172 2.808 10.144 2.799 10.115 2.791 C 10.086 2.783 10.057 2.777 10.028 2.772 C 9.999 2.766 9.97 2.762 9.94 2.76 C 9.911 2.757 9.881 2.756 9.852 2.756 C 9.822 2.756 9.793 2.757 9.764 2.76 C 9.734 2.762 9.705 2.766 9.676 2.772 C 9.647 2.777 9.618 2.783 9.59 2.791 C 9.561 2.799 9.533 2.808 9.505 2.818 C 9.477 2.828 9.449 2.84 9.422 2.853 C 9.395 2.865 9.368 2.879 9.342 2.895 C 9.315 2.91 9.29 2.927 9.265 2.946 C 9.24 2.964 9.215 2.983 9.192 3.004 L 8.817 3.332 L 8.442 3.661 L 5.817 5.957 L 5.442 6.286 L 3.192 8.254 C 3.178 8.266 3.165 8.278 3.153 8.291 C 3.14 8.303 3.128 8.316 3.116 8.329 C 3.104 8.342 3.092 8.355 3.081 8.369 C 3.07 8.383 3.059 8.397 3.049 8.411 C 3.038 8.425 3.028 8.44 3.019 8.455 C 3.009 8.469 3 8.484 2.991 8.499 C 2.982 8.515 2.973 8.53 2.965 8.546 C 2.957 8.561 2.949 8.577 2.942 8.593 C 2.935 8.609 2.928 8.625 2.922 8.642 C 2.915 8.658 2.909 8.675 2.904 8.691 C 2.898 8.708 2.893 8.725 2.889 8.742 C 2.884 8.759 2.88 8.776 2.876 8.793 C 2.872 8.811 2.868 8.828 2.865 8.846 C 2.862 8.863 2.86 8.881 2.858 8.898 C 2.856 8.916 2.854 8.933 2.853 8.951 C 2.852 8.969 2.852 8.987 2.852 9.004 L 2.852 17.754 C 2.852 17.789 2.854 17.823 2.857 17.857 C 2.86 17.89 2.865 17.924 2.872 17.956 C 2.879 17.989 2.887 18.021 2.897 18.052 C 2.907 18.083 2.918 18.114 2.931 18.143 C 2.943 18.173 2.957 18.202 2.973 18.231 C 2.988 18.259 3.005 18.287 3.023 18.313 C 3.041 18.34 3.06 18.366 3.081 18.39 C 3.101 18.415 3.122 18.438 3.145 18.461 C 3.167 18.484 3.191 18.506 3.216 18.526 C 3.241 18.546 3.266 18.565 3.293 18.583 C 3.319 18.601 3.347 18.618 3.375 18.633 C 3.404 18.648 3.433 18.662 3.463 18.675 C 3.493 18.688 3.523 18.699 3.555 18.709 C 3.586 18.719 3.617 18.727 3.65 18.734 C 3.683 18.74 3.716 18.745 3.75 18.749 C 3.783 18.752 3.817 18.754 3.852 18.754 L 5.852 18.754 L 5.852 13.754 C 5.852 13.65 5.857 13.548 5.867 13.447 C 5.878 13.347 5.893 13.247 5.913 13.15 C 5.933 13.052 5.958 12.957 5.987 12.863 C 6.016 12.769 6.05 12.677 6.088 12.587 C 6.126 12.497 6.168 12.41 6.214 12.325 C 6.261 12.24 6.311 12.157 6.365 12.077 C 6.418 11.997 6.476 11.92 6.537 11.846 C 6.598 11.772 6.663 11.701 6.731 11.633 C 6.799 11.565 6.87 11.501 6.944 11.44 C 7.018 11.379 7.095 11.321 7.175 11.267 C 7.255 11.213 7.338 11.163 7.423 11.116 C 7.508 11.07 7.595 11.028 7.685 10.99 C 7.774 10.952 7.866 10.918 7.96 10.889 C 8.054 10.86 8.15 10.835 8.248 10.815 C 8.345 10.795 8.445 10.78 8.545 10.769 C 8.646 10.759 8.748 10.754 8.852 10.754 L 10.852 10.754 C 10.873 10.754 10.894 10.754 10.915 10.755 C 10.936 10.755 10.957 10.756 10.978 10.757 C 10.999 10.758 11.02 10.759 11.04 10.76 C 11.061 10.761 11.082 10.762 11.103 10.764 C 11.124 10.766 11.145 10.768 11.165 10.77 C 11.186 10.772 11.206 10.774 11.227 10.777 C 11.235 10.778 11.243 10.779 11.252 10.781 C 11.236 10.933 11.228 11.088 11.228 11.247 C 11.228 11.631 11.267 11.983 11.346 12.305 C 11.336 12.387 11.325 12.463 11.315 12.531 C 11.3 12.624 11.059 12.775 11.044 12.772 C 11.028 12.769 11.013 12.766 10.997 12.764 C 10.981 12.762 10.965 12.76 10.949 12.759 C 10.933 12.757 10.917 12.756 10.901 12.755 C 10.885 12.754 10.868 12.754 10.852 12.754 L 8.852 12.754 C 8.817 12.754 8.783 12.756 8.75 12.759 C 8.716 12.762 8.683 12.767 8.65 12.774 C 8.617 12.781 8.586 12.789 8.555 12.799 C 8.523 12.809 8.493 12.82 8.463 12.833 C 8.433 12.845 8.404 12.859 8.375 12.875 C 8.347 12.89 8.319 12.907 8.293 12.925 C 8.266 12.943 8.241 12.962 8.216 12.983 C 8.191 13.003 8.167 13.024 8.145 13.047 C 8.122 13.07 8.101 13.094 8.081 13.118 C 8.06 13.143 8.041 13.168 8.023 13.195 C 8.005 13.221 7.988 13.249 7.973 13.277 C 7.957 13.306 7.943 13.335 7.931 13.365 C 7.918 13.395 7.907 13.426 7.897 13.457 C 7.887 13.488 7.879 13.52 7.872 13.553 C 7.865 13.585 7.86 13.618 7.857 13.652 C 7.854 13.685 7.852 13.719 7.852 13.754 L 7.852 18.754 L 11.421 18.754 L 10.988 19.727 C 11.431 20.029 11.96 20.294 12.577 20.524 C 12.578 20.528 12.58 20.533 12.581 20.537 C 12.601 20.595 11.634 20.754 11.634 20.754 Z"/>
  <path d="M 22.902 16.633 C 22.902 17.74 22.505 18.696 21.712 19.503 C 20.919 20.31 19.769 20.826 18.262 21.053 L 18.262 23.273 L 15.862 23.273 L 15.862 21.133 C 14.862 21.066 13.915 20.896 13.022 20.623 C 12.129 20.35 11.389 20.013 10.802 19.613 L 12.102 16.693 C 12.729 17.106 13.455 17.44 14.282 17.693 C 15.109 17.946 15.922 18.073 16.722 18.073 C 18.242 18.073 19.002 17.693 19.002 16.933 C 19.002 16.533 18.785 16.236 18.352 16.043 C 17.919 15.85 17.222 15.646 16.262 15.433 C 15.209 15.206 14.329 14.963 13.622 14.703 C 12.915 14.443 12.309 14.026 11.802 13.453 C 11.295 12.88 11.042 12.106 11.042 11.133 C 11.042 9.986 11.455 9.003 12.282 8.183 C 13.109 7.363 14.302 6.86 15.862 6.673 L 15.862 4.473 L 18.262 4.473 L 18.262 6.633 C 19.022 6.7 19.752 6.833 20.452 7.033 C 21.152 7.233 21.775 7.493 22.322 7.813 L 21.102 10.753 C 19.769 10.033 18.475 9.673 17.222 9.673 C 16.435 9.673 15.862 9.79 15.502 10.023 C 15.142 10.256 14.962 10.56 14.962 10.933 C 14.962 11.306 15.175 11.586 15.602 11.773 C 16.029 11.96 16.715 12.153 17.662 12.353 C 18.729 12.58 19.612 12.823 20.312 13.083 C 21.012 13.343 21.619 13.756 22.132 14.323 C 22.645 14.89 22.902 15.66 22.902 16.633 Z" style="white-space: pre; stroke: rgb(255, 255, 255); stroke-linecap: round; stroke-linejoin: round;"/>
</svg>
