<svg id="menu2" width="32" height="32" viewBox="0 0 32 32" fill="none" xmlns="http://www.w3.org/2000/svg">
  <path d="M7.42004 13.4384H24.5807" stroke="#707070" stroke-width="2" stroke-linecap="round"/>
  <path d="M7.42004 18.2296H24.5807" stroke="#707070" stroke-width="2" stroke-linecap="round"/>
  <path d="M16.5253 23.0214H24.5807" stroke="#707070" stroke-width="2" stroke-linecap="round"/>
  <path d="M11.756 24.3531C12.4915 24.3531 13.0877 23.7569 13.0877 23.0214C13.0877 22.286 12.4915 21.6898 11.756 21.6898C11.0205 21.6898 10.4243 22.286 10.4243 23.0214C10.4243 23.7569 11.0205 24.3531 11.756 24.3531Z" fill="#FF0099"/>
  <path d="M7.42004 8.64722H15.4748" stroke="#707070" stroke-width="2" stroke-linecap="round"/>
  <path d="M20.2447 9.97887C20.9801 9.97887 21.5763 9.38265 21.5763 8.64718C21.5763 7.91171 20.9801 7.31549 20.2447 7.31549C19.5092 7.31549 18.913 7.91171 18.913 8.64718C18.913 9.38265 19.5092 9.97887 20.2447 9.97887Z" fill="#FF0099"/>
</svg>