<svg id="rent" viewBox="0 0 24 24" xmlns="http://www.w3.org/2000/svg">
  <path d="M 13.486 6.066 C 13.045 6.331 12.491 6.514 12 6.514 C 11.556 6.514 11.06 6.364 10.643 6.139 L 8.025 8.757 L 16.177 8.757 Z M 9.375 4.579 C 9.281 4.3 9.226 4.01 9.226 3.74 C 9.226 3.046 9.591 2.226 10.038 1.778 C 10.486 1.331 11.306 0.966 12 0.966 C 12.694 0.966 13.514 1.331 13.962 1.778 C 14.409 2.226 14.774 3.046 14.774 3.74 C 14.774 3.961 14.737 4.194 14.672 4.424 L 19.005 8.757 L 20.889 8.757 C 21.529 8.801 22.301 9.101 22.713 9.512 C 23.124 9.924 23.424 10.696 23.468 11.336 L 23.468 21.114 C 23.424 21.754 23.124 22.526 22.713 22.938 C 22.301 23.349 21.529 23.649 20.889 23.693 L 3.11 23.693 C 2.47 23.649 1.698 23.349 1.286 22.938 C 0.875 22.526 0.575 21.754 0.531 21.114 L 0.531 11.336 C 0.575 10.696 0.875 9.924 1.286 9.512 C 1.698 9.101 2.47 8.801 3.11 8.757 L 5.197 8.757 Z M 12.547 3.193 C 12.352 2.998 12.286 2.966 12 2.966 C 11.714 2.966 11.648 2.998 11.453 3.193 C 11.258 3.388 11.226 3.454 11.226 3.74 C 11.226 4.026 11.258 4.092 11.453 4.287 C 11.648 4.482 11.714 4.514 12 4.514 C 12.286 4.514 12.352 4.482 12.547 4.287 C 12.742 4.092 12.774 4.026 12.774 3.74 C 12.774 3.454 12.742 3.388 12.547 3.193 Z M 2.701 10.927 C 2.541 11.086 2.487 11.104 2.531 11.336 L 2.531 21.114 C 2.487 21.346 2.541 21.364 2.701 21.523 C 2.86 21.683 2.878 21.737 3.11 21.693 L 20.889 21.693 C 21.121 21.737 21.139 21.683 21.298 21.523 C 21.458 21.364 21.512 21.346 21.468 21.114 L 21.468 11.336 C 21.512 11.104 21.458 11.086 21.298 10.927 C 21.139 10.767 21.121 10.713 20.889 10.757 L 3.11 10.757 C 2.878 10.713 2.86 10.767 2.701 10.927 Z M 6.233 18.392 L 5.513 17.332 L 5.133 17.332 L 5.133 18.392 L 3.713 18.392 L 3.713 14.192 L 5.733 14.192 C 6.126 14.192 6.466 14.255 6.753 14.382 C 7.04 14.509 7.26 14.692 7.413 14.932 C 7.573 15.172 7.653 15.452 7.653 15.772 C 7.653 16.072 7.583 16.335 7.443 16.562 C 7.31 16.789 7.116 16.965 6.863 17.092 L 7.743 18.392 Z M 6.223 15.772 C 6.223 15.619 6.176 15.499 6.083 15.412 C 5.983 15.325 5.836 15.282 5.643 15.282 L 5.133 15.282 L 5.133 16.272 L 5.643 16.272 C 5.836 16.272 5.983 16.229 6.083 16.142 C 6.176 16.055 6.223 15.932 6.223 15.772 Z M 9.573 17.322 L 11.673 17.322 L 11.673 18.392 L 8.183 18.392 L 8.183 14.192 L 11.603 14.192 L 11.603 15.262 L 9.573 15.262 L 9.573 15.752 L 11.353 15.752 L 11.353 16.772 L 9.573 16.772 Z M 14.981 14.192 L 16.361 14.192 L 16.361 18.392 L 15.201 18.392 L 13.601 16.482 L 13.601 18.392 L 12.221 18.392 L 12.221 14.192 L 13.391 14.192 L 14.981 16.102 Z M 17.954 18.392 L 17.954 15.292 L 16.724 15.292 L 16.724 14.192 L 20.604 14.192 L 20.604 15.292 L 19.374 15.292 L 19.374 18.392 Z"/>
</svg>
