<svg id="logo" width="56.417" height="40.361" version="1.1" viewBox="0 0 14.927 10.679" xmlns="http://www.w3.org/2000/svg">
  <g transform="matrix(.10335 0 0 .10335 -3.3963 -9.1052)">
    <path d="m111.13 190.17c-3-2.8011-9.2864-11.976-13.369-19.513-3.1983-5.9039-3.3923-6.5815-2.1153-7.387 0.66797-0.42134 1.1557 0.2278 3.9601 5.2703 4.9434 8.8887 8.9224 14.896 12.144 18.334 1.2787 1.3647 1.1442 1.4379 3.7846-2.0614 7.9882-10.587 14.475-22.16 18.789-33.522 1.6508-4.348 2.3383-5.364 3.2864-4.8566 0.83982 0.44946 0.70568 1.7202-0.53922 5.1079-3.0139 8.2016-7.475 17.025-13.085 25.882-3.8777 6.1213-10.143 14.003-11.131 14.003-0.20783 0-0.98359-0.56554-1.7239-1.2568zm-13.845-28.396c-11.476-2.1683-18.019-4.1999-25.929-8.0518-7.8818-3.8379-14.089-8.2431-20.115-14.275-5.7058-5.7115-7.3807-8.1514-6.0125-8.7586 0.25466-0.113 3.9121-0.27457 8.1277-0.35904l7.6647-0.15357-4.3574-2.175c-4.8249-2.4084-9.5983-5.1864-12.506-7.2781-5.2309-3.7632-11.298-9.1423-11.298-10.017 0-0.22282 0.16896-0.63624 0.37548-0.91871 0.36771-0.50297 1.0632-0.51518 33.626-0.59035l33.251-0.0768 3.2172-2.9328c10.814-9.8581 20.598-15.625 29.866-17.603 3.2687-0.69762 8.6873-0.634 11.398 0.13382 5.7051 1.6163 10.153 5.2088 14.387 11.62l1.975 2.991 8.1176 4.0302c7.2905 3.6196 8.1257 4.0999 8.1971 4.7143 0.14069 1.2103-0.37691 1.333-3.1357 0.74341-7.883-1.6846-7.6515-1.6534-12.422-1.673-5.4557-0.0225-7.6 0.37147-10.834 1.9903-4.5 2.2523-7.2271 5.9546-8.3621 11.352-0.1989 0.94588-0.49238 3.3867-0.65217 5.424-0.1598 2.0373-0.45947 4.5376-0.66594 5.5562-0.47937 2.3651-2.3579 6.1278-4.1556 8.3238-5.7206 6.988-18.517 13.673-33.141 17.313-3.309 0.82371-4.9291 0.98762-6.6146 0.66918zm5.0844-3.0433c5.1009-1.0536 13.27-3.9501 18.993-6.7342 6.3087-3.0692 10.736-6.2994 13.636-9.9476 2.7626-3.4764 3.9593-6.7051 3.9593-10.682 0-5.3827-2.3678-9.5783-7.2251-12.803-5.1403-3.412-11.006-5.0319-21.177-5.8481-2.7428-0.22009-5.0943-0.46654-5.2255-0.54766-0.45372-0.28041-0.25942-1.674 0.27312-1.959 1.5751-0.84298 12.496 0.34993 18.15 1.9826 6.9849 2.0169 12.602 5.5933 15.239 9.703 0.73731 1.149 0.89274 1.2724 1.0638 0.84462 0.11016-0.27555 0.52216-1.3344 0.91557-2.3531 1.6474-4.2656 4.7516-7.7369 8.6178-9.637 3.2029-1.5741 5.433-2.0518 10.644-2.28l4.4618-0.19541-2.832-1.4506c-2.3239-1.1904-2.9563-1.6465-3.5251-2.5427-3.726-5.8709-5.6531-8.1625-8.6113-10.24-10.5-7.3741-26.405-2.3894-44.364 13.904-1.9077 1.7308-3.7315 3.3332-4.0528 3.561-0.5205 0.36886-4.0316 0.42402-32.162 0.50532l-31.578 0.0913 0.88597 0.76851c9.9899 8.6655 20.655 14.321 31.635 16.777 3.6669 0.82003 4.3087 1.0973 4.3087 1.8613 0 1.3005-0.0685 1.308-12.542 1.3823-6.4171 0.0382-11.939 0.13067-12.271 0.2055l-0.60338 0.13606 0.73567 0.96568c1.2597 1.6535 8.4429 8.1753 11.27 10.232 9.5555 6.9526 21.548 11.973 33.916 14.198 3.3494 0.60253 4.9379 0.62426 7.4657 0.10213zm9.8645-13.804c-4.3434-1.1782-7.7217-4.5887-8.8548-8.9389-1.4652-5.6251 1.3799-11.449 6.8661-14.054 1.6229-0.77073 2.3894-0.96916 4.1713-1.08 5.3004-0.32959 9.6894 2.3361 12.082 7.338 0.905 1.8921 0.94884 2.1136 0.94276 4.7625-8e-3 3.3178-0.54616 4.9505-2.4674 7.4802-2.968 3.908-8.1533 5.7364-12.74 4.4922zm6.35-2.8355c2.6027-0.89891 5.0816-3.583 5.8725-6.3588 0.49147-1.7248 0.35505-4.5625-0.30205-6.283-0.76195-1.995-2.7031-4.1048-4.6876-5.0946-1.3931-0.69494-1.8033-0.77081-4.1902-0.77505-2.5087-4e-3 -2.7324 0.0419-4.316 0.89415-2.0836 1.1213-3.8181 3.0204-4.5552 4.9875-0.78978 2.1075-0.67642 5.9524 0.22975 7.7924 1.1878 2.4119 3.8654 4.5325 6.5899 5.219 1.2839 0.32352 3.8453 0.1411 5.3589-0.38164zm24.678-40.221c-0.95408-0.41476-1.921-1.7942-1.9224-2.7427-2e-3 -0.99789 0.80304-2.413 1.609-2.8298 0.97589-0.50466 2.619-0.4911 3.3597 0.0277 0.75912 0.53171 1.3806 1.7404 1.3793 2.6828-1e-3 1.0824-0.93476 2.4363-1.9807 2.8733-1.1095 0.46356-1.3551 0.46242-2.4449-0.0113z"/>
  </g>
</svg>

