<svg>
  <symbol xmlns="http://www.w3.org/2000/svg" viewBox="0 0 24 24" id="call">
    <path d="M19.44 13c-.22 0-.45-.07-.67-.12a9.44 9.44 0 0 1-1.31-.39 2 2 0 0 0-2.48 1l-.22.45a12.18 12.18 0 0 1-2.66-2 12.18 12.18 0 0 1-2-2.66l.42-.28a2 2 0 0 0 1-2.48 10.33 10.33 0 0 1-.39-1.31c-.05-.22-.09-.45-.12-.68a3 3 0 0 0-3-2.49h-3a3 3 0 0 0-3 3.41 19 19 0 0 0 16.52 16.46h.38a3 3 0 0 0 2-.76 3 3 0 0 0 1-2.25v-3a3 3 0 0 0-2.47-2.9zm.5 6a1 1 0 0 1-.34.75 1.06 1.06 0 0 1-.82.25A17 17 0 0 1 4.07 5.22a1.09 1.09 0 0 1 .25-.82 1 1 0 0 1 .75-.34h3a1 1 0 0 1 1 .79q.06.41.15.81a11.12 11.12 0 0 0 .46 1.55l-1.4.65a1 1 0 0 0-.49 1.33 14.49 14.49 0 0 0 7 7 1 1 0 0 0 .76 0 1 1 0 0 0 .57-.52l.62-1.4a13.69 13.69 0 0 0 1.58.46q.4.09.81.15a1 1 0 0 1 .79 1z"></path>
  </symbol>
  <symbol xmlns="http://www.w3.org/2000/svg" viewBox="0 0 24 24" id="message">
    <path d="M17 9H7a1 1 0 0 0 0 2h10a1 1 0 0 0 0-2zm-4 4H7a1 1 0 0 0 0 2h6a1 1 0 0 0 0-2zM12 2A10 10 0 0 0 2 12a9.89 9.89 0 0 0 2.26 6.33l-2 2a1 1 0 0 0-.21 1.09A1 1 0 0 0 3 22h9a10 10 0 0 0 0-20zm0 18H5.41l.93-.93a1 1 0 0 0 0-1.41A8 8 0 1 1 12 20z"></path>
  </symbol>
  <symbol id="rental-classic" width="42" height="42" viewBox="0 0 42 42" xmlns="http://www.w3.org/2000/svg">
    <path d="M2.08289 22.9171H4.16622V37.5004C4.16622 39.7983 6.03497 41.6671 8.33289 41.6671H33.3329C35.6308 41.6671 37.4996 39.7983 37.4996 37.5004V22.9171H39.5829C39.9949 22.917 40.3976 22.7948 40.7401 22.5658C41.0826 22.3369 41.3496 22.0116 41.5072 21.6309C41.6649 21.2503 41.7061 20.8315 41.6258 20.4274C41.5454 20.0234 41.3471 19.6522 41.0558 19.3608L22.3058 0.610836C22.1125 0.417199 21.8829 0.263578 21.6302 0.158764C21.3774 0.0539502 21.1065 0 20.8329 0C20.5593 0 20.2884 0.0539502 20.0356 0.158764C19.7829 0.263578 19.5533 0.417199 19.36 0.610836L0.609973 19.3608C0.318703 19.6522 0.120356 20.0234 0.0400073 20.4274C-0.0403418 20.8315 0.000914481 21.2503 0.15856 21.6309C0.316206 22.0116 0.583163 22.3369 0.925684 22.5658C1.2682 22.7948 1.67091 22.917 2.08289 22.9171ZM20.8329 5.02959L33.3329 17.5296V27.0838L33.335 37.5004H8.33289V17.5296L20.8329 5.02959Z" fill="#4E4E4E"/>
    <path d="M22.6725 16.6317C22.6725 17.1262 22.4761 17.6005 22.1264 17.9501C21.7767 18.2998 21.3025 18.4963 20.8079 18.4963C20.3134 18.4963 19.8392 18.2998 19.4895 17.9501C19.1398 17.6005 18.9434 17.1262 18.9434 16.6317C18.9434 16.1372 19.1398 15.6629 19.4895 15.3132C19.8392 14.9635 20.3134 14.7671 20.8079 14.7671C21.3025 14.7671 21.7767 14.9635 22.1264 15.3132C22.4761 15.6629 22.6725 16.1372 22.6725 16.6317Z" fill="#4E4E4E"/>
    <path d="M15.9733 31.1868L14.8515 30.2612L14.4217 30.3893L14.7666 31.5465L13.2126 32.0096L11.833 27.3809L14.0647 26.7157C14.483 26.591 14.8745 26.5518 15.2364 26.6005C15.5983 26.6492 15.9069 26.7786 16.1626 26.9904C16.4068 27.2057 16.5816 27.4902 16.6865 27.8423C16.785 28.1729 16.7992 28.4801 16.7278 28.766C16.6465 29.0548 16.4841 29.3192 16.2439 29.5582L17.643 30.6892L15.9733 31.1868ZM15.116 28.3104C15.0633 28.1335 14.9679 28.0125 14.8275 27.9463C14.7022 27.8883 14.5352 27.8895 14.3252 27.9521L13.7466 28.1245L14.0669 29.199L14.6455 29.0266C14.8554 28.964 14.9959 28.8736 15.069 28.7564C15.1502 28.6242 15.1653 28.4757 15.116 28.3104ZM19.3265 28.9094L21.6409 28.2196L21.9908 29.3933L18.139 30.5414L16.7594 25.9126L20.512 24.7941L20.8618 25.9678L18.6466 26.6281L18.8092 27.1736L20.7599 26.5922L21.0949 27.7164L19.1442 28.2978L19.3265 28.9094ZM24.2514 23.6796L25.7723 23.2263L27.1519 27.8551L25.8624 28.2394L23.4843 26.6622L24.1101 28.7617L22.5892 29.215L21.2096 24.5862L22.4825 24.2068L24.8771 25.7791L24.2514 23.6796ZM28.9141 27.3299L27.8942 23.9079L26.5386 24.3119L26.1789 23.1051L30.444 21.8339L30.8037 23.0407L29.4481 23.4447L30.468 26.8667L28.9141 27.3299Z" fill="#4E4E4E"/>
    <path d="M20.6247 16.7339L13.6997 25.1693" stroke="#4E4E4E" stroke-linecap="round"/>
    <path d="M20.8329 16.5647L27.0475 20.8335" stroke="#4E4E4E" stroke-linecap="round"/>
  </symbol>
  <symbol id="rental-travel" width="41" height="37" viewBox="0 0 41 37" fill="none" xmlns="http://www.w3.org/2000/svg">
    <path d="M6.6587 9.62622H34.3431C35.3695 9.62622 36.3538 10.034 37.0796 10.7597C37.8053 11.4855 38.2131 12.4698 38.2131 13.4962V30.6712C38.2131 31.6976 37.8053 32.682 37.0796 33.4077C36.3538 34.1335 35.3695 34.5412 34.3431 34.5412H6.6587C6.15048 34.5412 5.64724 34.4411 5.17771 34.2466C4.70818 34.0522 4.28156 33.7671 3.92219 33.4077C3.19643 32.682 2.7887 31.6976 2.7887 30.6712V13.4962C2.7887 12.4698 3.19643 11.4855 3.92219 10.7597C4.64796 10.034 5.63231 9.62622 6.6587 9.62622V9.62622Z" stroke="#4E4E4E" stroke-width="4"/>
    <path d="M14.8918 2.12622H26.1118C26.6131 2.12622 27.0938 2.32535 27.4483 2.67979C27.8027 3.03423 28.0018 3.51496 28.0018 4.01622V9.62622H13.0018V4.01622C13.0018 3.51496 13.201 3.03423 13.5554 2.67979C13.9098 2.32535 14.3906 2.12622 14.8918 2.12622V2.12622Z" stroke="#4E4E4E" stroke-width="4"/>
    <path d="M9.25892 18.0508C8.72679 16.462 9.28168 15.8347 10.9236 16.1689L12.3627 16.4607C14.0046 16.7949 14.2703 17.5898 13.1597 18.8453L12.1882 19.9436C11.0776 21.1991 10.2563 21.0325 9.72414 19.4436L9.25892 18.0508Z" fill="#4E4E4E"/>
    <path d="M23.9787 20.0577C24.5957 19.1941 25.4103 18.9221 26.4224 19.2418L29.461 20.2021C30.4747 20.5226 30.9855 21.2139 30.9935 22.2761L31.0193 25.4619C31.0273 26.524 30.528 27.2231 29.5214 27.5591L26.498 28.5685C25.4914 28.9046 24.6723 28.6457 24.0406 27.7918L22.1473 25.2295C21.5156 24.3756 21.5087 23.516 22.1265 22.6509L23.9787 20.0577Z" fill="#4E4E4E"/>
  </symbol>
  <symbol id="rental-temporal" width="44" height="39" viewBox="0 0 44 39" fill="none" xmlns="http://www.w3.org/2000/svg">
    <path d="M43.1426 14.9509H30.6426C30.4277 14.9509 30.252 15.1267 30.252 15.3416V17.6853C30.252 17.9001 30.4277 18.0759 30.6426 18.0759H43.1426C43.3574 18.0759 43.5332 17.9001 43.5332 17.6853V15.3416C43.5332 15.1267 43.3574 14.9509 43.1426 14.9509ZM36.5996 21.5916H30.6426C30.4277 21.5916 30.252 21.7673 30.252 21.9822V24.3259C30.252 24.5408 30.4277 24.7166 30.6426 24.7166H36.5996C36.8145 24.7166 36.9902 24.5408 36.9902 24.3259V21.9822C36.9902 21.7673 36.8145 21.5916 36.5996 21.5916ZM20.3057 10.5808H18.1914C17.8887 10.5808 17.6445 10.825 17.6445 11.1277V23.2371C17.6445 23.4128 17.7275 23.574 17.8691 23.6765L25.1397 28.9792C25.3838 29.155 25.7256 29.1062 25.9014 28.8621L27.1563 27.1482V27.1433C27.332 26.8992 27.2783 26.5574 27.0342 26.3816L20.8477 21.9089V11.1277C20.8525 10.825 20.6035 10.5808 20.3057 10.5808Z" fill="#4E4E4E"/>
    <path d="M36.2969 27.739H33.4747C33.2012 27.739 32.9424 27.8806 32.7959 28.115C32.1758 29.0965 31.4532 30.0047 30.6231 30.8347C29.1924 32.2654 27.5274 33.3885 25.6768 34.1697C23.7579 34.9802 21.7217 35.3904 19.6221 35.3904C17.5176 35.3904 15.4815 34.9802 13.5674 34.1697C11.7168 33.3885 10.0518 32.2654 8.62113 30.8347C7.19047 29.4041 6.06742 27.739 5.28617 25.8885C4.47562 23.9744 4.06546 21.9383 4.06546 19.8338C4.06546 17.7293 4.47562 15.698 5.28617 13.7791C6.06742 11.9285 7.19047 10.2635 8.62113 8.83279C10.0518 7.40213 11.7168 6.27908 13.5674 5.49783C15.4815 4.68728 17.5225 4.27712 19.6221 4.27712C21.7266 4.27712 23.7627 4.68728 25.6768 5.49783C27.5274 6.27908 29.1924 7.40213 30.6231 8.83279C31.4532 9.66287 32.1758 10.5711 32.7959 11.5525C32.9424 11.7869 33.2012 11.9285 33.4747 11.9285H36.2969C36.6338 11.9285 36.8487 11.5769 36.6973 11.2791C33.5137 4.94607 27.0586 0.829859 19.8516 0.746851C9.29984 0.615015 0.53519 9.25271 0.515658 19.7947C0.496127 30.3562 9.0557 38.9256 19.6172 38.9256C26.917 38.9256 33.4795 34.7947 36.6973 28.3885C36.8487 28.0906 36.6289 27.739 36.2969 27.739Z" fill="#4E4E4E"/>
  </symbol>
  <symbol id="rental-commercial" width="40" height="40" viewBox="0 0 40 40" fill="none" xmlns="http://www.w3.org/2000/svg">
    <path d="M37.5977 8.65112V2.39624C37.5977 1.53198 36.8994 0.83374 36.0352 0.83374H3.02737C2.16312 0.83374 1.46487 1.53198 1.46487 2.39624V8.65112C0.649444 8.69995 3.02536e-05 9.37866 3.02536e-05 10.2087V16.6394C-0.00309673 17.8213 0.236209 18.9912 0.703155 20.0769C0.913116 20.575 1.17191 21.0437 1.46487 21.488V38.3337C1.46487 39.1931 2.16312 39.8962 3.02737 39.8962H36.0352C36.8994 39.8962 37.5977 39.198 37.5977 38.3337V21.488C37.8953 21.0426 38.1503 20.5701 38.3594 20.0769C38.8233 18.988 39.0625 17.8308 39.0625 16.6394V10.2087C39.0625 9.37866 38.4131 8.69995 37.5977 8.65112ZM4.9805 4.34937H34.0821V8.64624H4.9805V4.34937ZM22.6563 36.3855H16.4063V31.3025H22.6563V36.3855ZM34.0821 36.3855H25.7813V29.74C25.7813 28.8757 25.083 28.1775 24.2188 28.1775H14.8438C13.9795 28.1775 13.2813 28.8757 13.2813 29.74V36.3855H4.9805V24.5593C5.1221 24.6277 5.26858 24.696 5.41995 24.7546C6.50882 25.2136 7.66605 25.4431 8.85745 25.4431C10.0489 25.4431 11.2012 25.2136 12.295 24.7546C12.9688 24.4714 13.6035 24.1101 14.1846 23.6755C14.1944 23.6707 14.2041 23.6707 14.2139 23.6755C14.7968 24.112 15.4315 24.4744 16.1035 24.7546C17.1924 25.2136 18.3496 25.4431 19.541 25.4431C20.7325 25.4431 21.8848 25.2136 22.9785 24.7546C23.6524 24.4714 24.2871 24.1101 24.8682 23.6755C24.878 23.6707 24.8877 23.6707 24.8975 23.6755C25.4804 24.112 26.1151 24.4744 26.7871 24.7546C27.876 25.2136 29.0332 25.4431 30.2246 25.4431C31.416 25.4431 32.5684 25.2136 33.6621 24.7546C33.8086 24.6912 33.9551 24.6277 34.1016 24.5593V36.3855H34.0821ZM35.5469 16.6394C35.5469 19.5593 33.1543 21.9275 30.21 21.9275C28.2178 21.9275 26.4795 20.8484 25.5616 19.2468C25.42 19.0027 25.166 18.8513 24.8828 18.8513H24.8535C24.5752 18.8513 24.3164 19.0027 24.1748 19.2468C23.7064 20.0638 23.03 20.7422 22.2144 21.213C21.3988 21.6839 20.473 21.9304 19.5313 21.9275C17.544 21.9275 15.8106 20.8533 14.8926 19.2566C14.7461 19.0076 14.4825 18.8513 14.1944 18.8513C13.9063 18.8513 13.6377 19.0076 13.4961 19.2566C13.0249 20.0704 12.3477 20.7458 11.5325 21.2147C10.7173 21.6836 9.79298 21.9294 8.85257 21.9275C5.90823 21.9275 3.51565 19.5593 3.51565 16.6394V12.1863C3.51565 12.1716 3.52542 12.1619 3.54007 12.1619H35.5225C35.5371 12.1619 35.5469 12.1716 35.5469 12.1863V16.6394Z" fill="#4E4E4E"/>
  </symbol>
  <symbol id="rental-all" width="42" height="42" viewBox="0 0 42 42" fill="none" xmlns="http://www.w3.org/2000/svg">
    <path d="M2.08289 22.9171H4.16622V37.5004C4.16622 39.7984 6.03498 41.6671 8.33289 41.6671H33.3329C35.6308 41.6671 37.4996 39.7984 37.4996 37.5004V22.9171H39.5829C39.9949 22.917 40.3976 22.7948 40.7401 22.5659C41.0826 22.3369 41.3496 22.0116 41.5072 21.631C41.6649 21.2503 41.7061 20.8315 41.6258 20.4274C41.5454 20.0234 41.3471 19.6522 41.0558 19.3608L22.3058 0.610836C22.1125 0.417199 21.8829 0.263578 21.6302 0.158764C21.3774 0.0539502 21.1065 0 20.8329 0C20.5593 0 20.2884 0.0539502 20.0356 0.158764C19.7829 0.263578 19.5533 0.417199 19.36 0.610836L0.609973 19.3608C0.318703 19.6522 0.120356 20.0234 0.0400073 20.4274C-0.0403418 20.8315 0.000914482 21.2503 0.15856 21.631C0.316206 22.0116 0.583164 22.3369 0.925685 22.5659C1.26821 22.7948 1.67091 22.917 2.08289 22.9171ZM20.8329 5.02959L33.3329 17.5296V27.0838L33.335 37.5004H8.33289V17.5296L20.8329 5.02959Z" fill="#4E4E4E"/>
    <path d="M21.1637 33.332C28.0189 33.332 30.2367 26.7805 30.3274 26.5028L26.81 25.3531C26.7952 25.3957 25.3642 29.6295 21.1637 29.6295C17.0206 29.6295 15.5729 25.5179 15.5155 25.342L12 26.5028C12.0907 26.7805 14.3085 33.332 21.1637 33.332Z" fill="#4E4E4E"/>
  </symbol>
  <symbol id="buy-apart" width="40" height="40" viewBox="0 0 40 40" fill="none" xmlns="http://www.w3.org/2000/svg">
    <path d="M35.44 2.71997H4.56C4.24 2.71997 4 2.95997 4 3.27997V36.24C4 36.56 4.24 36.8 4.56 36.8H35.52C35.84 36.8 36.08 36.56 36.08 36.24V3.27997C36 2.95997 35.76 2.71997 35.44 2.71997Z" stroke="#4C4C4C" stroke-width="4" stroke-miterlimit="10" stroke-linecap="round"/>
    <path d="M10 9.80005H13.6V12.76" stroke="#4C4C4C" stroke-width="1.5" stroke-miterlimit="10" stroke-linecap="round"/>
    <path d="M18.64 9.80005H22.24V12.76" stroke="#4C4C4C" stroke-width="1.5" stroke-miterlimit="10" stroke-linecap="round"/>
    <path d="M27.28 9.80005H30.88V12.76" stroke="#4C4C4C" stroke-width="1.5" stroke-miterlimit="10" stroke-linecap="round"/>
    <path d="M14 18.64H17.6V21.6" stroke="#4C4C4C" stroke-width="1.5" stroke-miterlimit="10" stroke-linecap="round"/>
    <path d="M22.92 18.64H26.52V21.6" stroke="#4C4C4C" stroke-width="1.5" stroke-miterlimit="10" stroke-linecap="round"/>
    <path d="M20.0968 28H19.9032C18.2581 28 17 29.4 17 31V34C17 35.7 18.3548 37 19.9032 37H20.0968C21.7419 37 23 35.6 23 34V31.1C23 29.4 21.7419 28 20.0968 28Z" stroke="#4C4C4C" stroke-width="3" stroke-miterlimit="10" stroke-linecap="round"/>
  </symbol>
  <symbol id="buy-land" width="40" height="40" viewBox="0 0 40 40" fill="none" xmlns="http://www.w3.org/2000/svg">
    <path d="M3.33331 11.6667L13.75 3.33337H15.8333H17.9166H20H22.0833H24.1666H26.25H28.3333H30.4166H32.5H34.5833H36.6666V5.41671V7.50004V9.58338V11.6667V13.75V15.8334V17.9167V20V22.0834V24.1667V26.25V28.3334V30.4167V32.5V34.5834V36.6667H34.5833H32.5H30.4166H28.3333H26.25H24.1666H22.0833H20H17.9166H15.8333H13.75H11.6666H9.58331H7.49998H5.41665H3.33331V34.5834V32.5V30.4167V28.3334V26.25V24.1667V22.0834V20V17.9167V15.8334V13.75V11.6667Z" stroke="#4E4E4E" stroke-width="4" stroke-linejoin="round"/>
    <path fill-rule="evenodd" clip-rule="evenodd" d="M26.9614 28.5192V25.8587C28.7351 25.4667 30.4247 23.581 30.4247 21.3126C30.4247 18.7585 28.5017 12 26.3957 12C24.2916 12 22.363 18.7585 22.363 21.3126C22.363 23.5343 24.1273 25.3864 25.845 25.8345V28.4109C24.6744 28.3549 23.5019 28.3269 22.3313 28.3269C21.1364 28.3269 19.9415 28.4072 18.756 28.5603V25.4424C19.9882 25.0783 21.0524 23.7864 21.0524 22.2312C21.0524 20.4015 19.7735 15.4876 18.2052 15.4876C16.6276 15.4876 15.3524 20.4015 15.3524 22.2312C15.3524 23.8144 16.4073 25.125 17.6768 25.4611V28.7246C14.8857 29.2044 13 30.0222 13 30.5486H31.67C31.67 30.0166 29.7713 28.7657 26.9614 28.5192Z" fill="#4E4E4E"/>
  </symbol>

  <symbol id="buy-home" viewBox="0 0 24 24" xmlns="http://www.w3.org/2000/svg">
    <path d="M 1.2 13.199 L 2.4 13.199 L 2.4 21.599 C 2.4 22.922 3.476 23.999 4.8 23.999 L 19.199 23.999 C 20.522 23.999 21.599 22.922 21.599 21.599 L 21.599 13.199 L 22.799 13.199 C 23.723 13.199 24.3 12.2 23.837 11.399 C 23.785 11.308 23.72 11.225 23.647 11.151 L 12.848 0.352 C 12.38 -0.118 11.619 -0.118 11.151 0.352 L 0.352 11.151 C -0.301 11.805 -0.002 12.92 0.889 13.158 C 0.991 13.186 1.096 13.199 1.2 13.199 Z M 11.999 2.897 L 19.199 10.096 L 19.199 15.599 L 19.2 21.599 L 4.8 21.599 L 4.8 10.096 L 11.999 2.897 Z" fill="#4E4E4E"/>
    <path d="M 405 414 m -3.809 0 a 3.809 3.809 0 1 0 7.618 0 a 3.809 3.809 0 1 0 -7.618 0 Z M 405 414 m -2.286 0 a 2.286 2.286 0 0 1 4.572 0 a 2.286 2.286 0 0 1 -4.572 0 Z" transform="matrix(-0.707107, 0.707107, -0.707107, -0.707107, 591.353638, 18.830626)" fill="#4E4E4E"/>
  </symbol>

  <symbol id="delete" width="30" height="30" viewBox="0 0 30 30" fill="none" xmlns="http://www.w3.org/2000/svg">
    <path d="M25.4625 11.1375L24.2125 13.3L9.05 4.54995L10.3 2.38745L14.1 4.57495L15.8 4.11245L21.2125 7.23745L21.675 8.94995L25.4625 11.1375ZM7.5 23.75V8.74995H13.8375L22.5 13.75V23.75C22.5 24.413 22.2366 25.0489 21.7678 25.5177C21.2989 25.9866 20.663 26.25 20 26.25H10C9.33696 26.25 8.70107 25.9866 8.23223 25.5177C7.76339 25.0489 7.5 24.413 7.5 23.75ZM10 23.75H20V15.25L13.075 11.25H10V23.75Z" fill="white"/>
  </symbol>

</svg>
