<svg>
  <symbol xmlns="http://www.w3.org/2000/svg" viewBox="0 0 24 24" id="call">
    <path d="M19.44 13c-.22 0-.45-.07-.67-.12a9.44 9.44 0 0 1-1.31-.39 2 2 0 0 0-2.48 1l-.22.45a12.18 12.18 0 0 1-2.66-2 12.18 12.18 0 0 1-2-2.66l.42-.28a2 2 0 0 0 1-2.48 10.33 10.33 0 0 1-.39-1.31c-.05-.22-.09-.45-.12-.68a3 3 0 0 0-3-2.49h-3a3 3 0 0 0-3 3.41 19 19 0 0 0 16.52 16.46h.38a3 3 0 0 0 2-.76 3 3 0 0 0 1-2.25v-3a3 3 0 0 0-2.47-2.9zm.5 6a1 1 0 0 1-.34.75 1.06 1.06 0 0 1-.82.25A17 17 0 0 1 4.07 5.22a1.09 1.09 0 0 1 .25-.82 1 1 0 0 1 .75-.34h3a1 1 0 0 1 1 .79q.06.41.15.81a11.12 11.12 0 0 0 .46 1.55l-1.4.65a1 1 0 0 0-.49 1.33 14.49 14.49 0 0 0 7 7 1 1 0 0 0 .76 0 1 1 0 0 0 .57-.52l.62-1.4a13.69 13.69 0 0 0 1.58.46q.4.09.81.15a1 1 0 0 1 .79 1z"></path>
  </symbol>
  <symbol xmlns="http://www.w3.org/2000/svg" viewBox="0 0 24 24" id="message">
    <path d="M17 9H7a1 1 0 0 0 0 2h10a1 1 0 0 0 0-2zm-4 4H7a1 1 0 0 0 0 2h6a1 1 0 0 0 0-2zM12 2A10 10 0 0 0 2 12a9.89 9.89 0 0 0 2.26 6.33l-2 2a1 1 0 0 0-.21 1.09A1 1 0 0 0 3 22h9a10 10 0 0 0 0-20zm0 18H5.41l.93-.93a1 1 0 0 0 0-1.41A8 8 0 1 1 12 20z"></path>
  </symbol>
</svg>
